<svg width="24" height="24" viewBox="0 0 24 24" fill="none" xmlns="http://www.w3.org/2000/svg">
<g clip-path="url(#clip0_647_1974)">
<path d="M12 14V7" stroke="black" stroke-width="2" stroke-linecap="round"/>
<path d="M7.88912 4.07541C8.26419 3.70033 8.7729 3.48962 9.30333 3.48962L14.6967 3.48962C15.2271 3.48962 15.7359 3.70033 16.1109 4.07541L19.9246 7.88911C20.2997 8.26418 20.5104 8.77289 20.5104 9.30332L20.5104 14.6967C20.5104 15.2271 20.2997 15.7358 19.9246 16.1109L16.1109 19.9246C15.7359 20.2997 15.2271 20.5104 14.6967 20.5104L9.30333 20.5104C8.7729 20.5104 8.26419 20.2997 7.88912 19.9246L4.07541 16.1109C3.70034 15.7358 3.48963 15.2271 3.48963 14.6967L3.48963 9.30332C3.48963 8.77289 3.70034 8.26418 4.07541 7.88911L7.88912 4.07541Z" stroke="black" stroke-width="2"/>
<path d="M12 17H12.01" stroke="black" stroke-width="2" stroke-linecap="round"/>
</g>
<defs>
<clipPath id="clip0_647_1974">
<rect width="24" height="24" fill="white"/>
</clipPath>
</defs>
</svg>
