<svg width="24" height="24" viewBox="0 0 24 24" fill="none" xmlns="http://www.w3.org/2000/svg">
<path d="M8 16H6.5C4.567 16 3 14.433 3 12.5C3 12.4188 3.00277 12.3382 3.00821 12.2584C3.00276 12.1729 3 12.0868 3 12C3 9.79086 4.79086 8 7 8C7.41666 8 7.81843 8.0637 8.19612 8.1819C8.7596 6.33975 10.4733 5 12.5 5C14.4623 5 16.1312 6.25598 16.7467 8.00789C16.8305 8.00266 16.9149 8 17 8C19.2091 8 21 9.79086 21 12C21 12.0868 20.9972 12.1729 20.9918 12.2584C20.9972 12.3382 21 12.4188 21 12.5C21 14.433 19.433 16 17.5 16H17H16" stroke="black" stroke-width="2" stroke-linecap="round" stroke-linejoin="round"/>
<path d="M12 12L12 21" stroke="black" stroke-width="2" stroke-linecap="round" stroke-linejoin="round"/>
<path d="M12 21L14 19" stroke="black" stroke-width="2" stroke-linecap="round" stroke-linejoin="round"/>
<path d="M12 21L10 19" stroke="black" stroke-width="2" stroke-linecap="round" stroke-linejoin="round"/>
</svg>
