<svg width="24" height="24" viewBox="0 0 24 24" fill="none" xmlns="http://www.w3.org/2000/svg">
<rect x="9" y="9" width="6" height="6" stroke="black" stroke-width="2"/>
<path d="M3 6C3 4.34315 4.34315 3 6 3V3C7.65685 3 9 4.34315 9 6V9H6C4.34315 9 3 7.65685 3 6V6Z" stroke="black" stroke-width="2"/>
<path d="M21 6C21 4.34315 19.6569 3 18 3V3C16.3431 3 15 4.34315 15 6V9H18C19.6569 9 21 7.65685 21 6V6Z" stroke="black" stroke-width="2"/>
<path d="M21 18C21 19.6569 19.6569 21 18 21V21C16.3431 21 15 19.6569 15 18V15H18C19.6569 15 21 16.3431 21 18V18Z" stroke="black" stroke-width="2"/>
<path d="M3 18C3 19.6569 4.34315 21 6 21V21C7.65685 21 9 19.6569 9 18V15H6C4.34315 15 3 16.3431 3 18V18Z" stroke="black" stroke-width="2"/>
</svg>
