<svg width="24" height="24" viewBox="0 0 24 24" fill="none" xmlns="http://www.w3.org/2000/svg">
<path d="M4 7V5C4 4.44772 4.44772 4 5 4H7" stroke="black" stroke-width="2" stroke-linecap="round"/>
<path d="M20 7V5C20 4.44772 19.5523 4 19 4H17" stroke="black" stroke-width="2" stroke-linecap="round"/>
<path d="M4 17V19C4 19.5523 4.44772 20 5 20H7" stroke="black" stroke-width="2" stroke-linecap="round"/>
<path d="M20 17V19C20 19.5523 19.5523 20 19 20H17" stroke="black" stroke-width="2" stroke-linecap="round"/>
<circle cx="8" cy="9.5" r="1.5" fill="black"/>
<circle cx="16" cy="9.5" r="1.5" fill="black"/>
<path d="M15.4649 14C14.7732 15.1956 13.4806 16 12 16C10.5194 16 9.22674 15.1956 8.53513 14" stroke="black" stroke-width="2" stroke-linecap="round"/>
<path d="M12 10V11.5858C12 11.851 11.8946 12.1054 11.7071 12.2929L11.5 12.5" stroke="black" stroke-width="2" stroke-linecap="round"/>
</svg>
