<svg width="24" height="24" viewBox="0 0 24 24" fill="none" xmlns="http://www.w3.org/2000/svg">
<path d="M12 14V21" stroke="black" stroke-width="2" stroke-linecap="round"/>
<path d="M9 20V19M15 14V13.2427C15 12.447 14.6839 11.684 14.1213 11.1213C12.9497 9.94977 11.0503 9.94977 9.87868 11.1213C9.31607 11.684 9 12.447 9 13.2427V16M15 20V17.25M6 19V12.4853C6 11.4964 6.24411 10.5328 6.69895 9.6748M18 19V14.5M3 16V13.2427M21 16V12.1591C21 11.2498 20.8624 10.3541 20.5982 9.5M18.5658 6.00358C16.9118 4.23931 14.7245 3.29573 12.5 3.17285M9 7.28744C11.2946 5.96117 14.2796 6.27958 16.2426 8.24267C17.0405 9.04055 17.5905 10.04 17.8429 11.1213M3.57264 9C3.98581 7.89782 4.61479 6.87758 5.43417 6.00358C6.32678 5.05146 7.37472 4.33836 8.5 3.86428" stroke="black" stroke-width="2" stroke-linecap="round"/>
</svg>
