<svg width="24" height="24" viewBox="0 0 24 24" fill="none" xmlns="http://www.w3.org/2000/svg">
<path d="M4.02231 8.1686L11.7911 4.59606C11.9237 4.53509 12.0763 4.53509 12.2089 4.59606L19.9777 8.1686C20.3713 8.34963 20.3641 8.91153 19.9659 9.08237L12.1971 12.4154C12.0713 12.4694 11.9287 12.4694 11.8029 12.4154L4.03407 9.08237C3.63589 8.91153 3.62865 8.34963 4.02231 8.1686Z" stroke="black" stroke-width="2" stroke-linecap="round"/>
<path d="M4 12.5L11.5992 15.8246C11.8547 15.9364 12.1453 15.9364 12.4008 15.8246L20 12.5" stroke="black" stroke-width="2" stroke-linecap="round"/>
<path d="M4 16L11.5992 19.3246C11.8547 19.4364 12.1453 19.4364 12.4008 19.3246L20 16" stroke="black" stroke-width="2" stroke-linecap="round"/>
</svg>
