<svg width="24" height="24" viewBox="0 0 24 24" fill="none" xmlns="http://www.w3.org/2000/svg">
<path d="M13.693 12.106C13.55 11.8067 13.3545 11.5261 13.1066 11.2782L12.3995 10.5711C11.2279 9.39952 9.32842 9.39952 8.15685 10.5711L4.62131 14.1066C3.44974 15.2782 3.44974 17.1777 4.62131 18.3493L5.32842 19.0564C6.49999 20.2279 8.39949 20.2279 9.57106 19.0564L10.6317 17.9957L11.3388 17.2886" stroke="black" stroke-width="2" stroke-linecap="round"/>
<path d="M10.3989 12.5717C10.5419 12.871 10.7373 13.1516 10.9853 13.3995L11.6924 14.1066C12.8639 15.2782 14.7634 15.2782 15.935 14.1066L19.4705 10.5711C20.6421 9.39949 20.6421 7.5 19.4705 6.32843L18.7634 5.62132C17.5919 4.44975 15.6924 4.44975 14.5208 5.62132L13.4601 6.68198L12.753 7.38909" stroke="black" stroke-width="2" stroke-linecap="round"/>
</svg>
