<svg width="24" height="24" viewBox="0 0 24 24" fill="none" xmlns="http://www.w3.org/2000/svg">
<path d="M10.2 4.14174C10.2 3.51118 10.7112 3 11.3417 3H12.6583C13.2888 3 13.8 3.51118 13.8 4.14174V4.14174C13.8 4.6627 14.1567 5.10872 14.6413 5.29991C14.6797 5.31504 14.7178 5.33048 14.7558 5.34624C15.3043 5.57368 15.958 5.49641 16.3779 5.07654V5.07654C16.8975 4.55693 17.7491 4.54775 18.2687 5.06736L18.9326 5.73127C19.4522 6.25088 19.4431 7.10252 18.9235 7.62213V7.62213C18.5036 8.04199 18.4263 8.69566 18.6538 9.24415C18.6695 9.28217 18.685 9.32034 18.7001 9.35868C18.8913 9.84329 19.3373 10.2 19.8583 10.2V10.2C20.4888 10.2 21 10.7112 21 11.3417V12.6583C21 13.2888 20.4888 13.8 19.8583 13.8V13.8C19.3373 13.8 18.8913 14.1567 18.7001 14.6413C18.685 14.6797 18.6695 14.7178 18.6538 14.7558C18.4263 15.3043 18.5036 15.958 18.9235 16.3779V16.3779C19.4431 16.8975 19.4522 17.7491 18.9326 18.2687L18.2687 18.9326C17.7491 19.4522 16.8975 19.4431 16.3779 18.9235V18.9235C15.958 18.5036 15.3043 18.4263 14.7558 18.6538C14.7178 18.6695 14.6797 18.685 14.6413 18.7001C14.1567 18.8913 13.8 19.3373 13.8 19.8583V19.8583C13.8 20.4888 13.2888 21 12.6583 21H11.3417C10.7112 21 10.2 20.4888 10.2 19.8583V19.8583C10.2 19.3373 9.84329 18.8913 9.35868 18.7001C9.32034 18.685 9.28217 18.6695 9.24415 18.6538C8.69566 18.4263 8.04199 18.5036 7.62213 18.9235V18.9235C7.10252 19.4431 6.2509 19.4522 5.73129 18.9326L5.06737 18.2687C4.54776 17.7491 4.55694 16.8975 5.07654 16.3779V16.3779C5.49641 15.958 5.57368 15.3043 5.34624 14.7558C5.33048 14.7178 5.31504 14.6797 5.29991 14.6413C5.10872 14.1567 4.6627 13.8 4.14174 13.8V13.8C3.51118 13.8 3 13.2888 3 12.6583L3 11.3417C3 10.7112 3.51118 10.2 4.14174 10.2V10.2C4.6627 10.2 5.10872 9.84329 5.29991 9.35868C5.31504 9.32034 5.33048 9.28217 5.34625 9.24415C5.57368 8.69566 5.49641 8.04199 5.07654 7.62213V7.62213C4.55693 7.10252 4.54776 6.25088 5.06737 5.73127L5.73128 5.06736C6.25089 4.54775 7.10252 4.55693 7.62213 5.07654V5.07654C8.042 5.49641 8.69566 5.57368 9.24416 5.34624C9.28217 5.33048 9.32034 5.31504 9.35868 5.29991C9.84329 5.10872 10.2 4.6627 10.2 4.14174V4.14174Z" stroke="black" stroke-width="2"/>
<circle cx="12" cy="12" r="2" stroke="black" stroke-width="2"/>
</svg>
