<svg width="24" height="24" viewBox="0 0 24 24" fill="none" xmlns="http://www.w3.org/2000/svg">
<path d="M11.0446 4.09181C11.335 3.15214 12.665 3.15213 12.9554 4.09181L14.379 8.69849C14.5084 9.1175 14.8958 9.40325 15.3344 9.40325H20.0437C21.0002 9.40325 21.4109 10.6172 20.6508 11.1979L16.7559 14.1733C16.4229 14.4277 16.2838 14.8628 16.4076 15.2632L17.8747 20.0108C18.1621 20.941 17.0859 21.6918 16.3122 21.1007L12.6071 18.2703C12.2487 17.9965 11.7513 17.9965 11.3929 18.2703L7.68782 21.1007C6.91413 21.6918 5.83788 20.941 6.12533 20.0108L7.59243 15.2632C7.71616 14.8628 7.5771 14.4277 7.24407 14.1733L3.34923 11.1979C2.58912 10.6172 2.99976 9.40325 3.9563 9.40325H8.66561C9.10417 9.40325 9.49155 9.1175 9.62103 8.69849L11.0446 4.09181Z" stroke="black" stroke-width="2"/>
<path fill-rule="evenodd" clip-rule="evenodd" d="M12 3.19354C11.7974 3.19354 11.5949 3.311 11.5223 3.54592L9.74821 9.28696C9.68347 9.49646 9.48978 9.63934 9.2705 9.63934H3.47815C2.99988 9.63934 2.79456 10.2463 3.17462 10.5367L7.90319 14.149C8.0697 14.2762 8.13923 14.4937 8.07737 14.6939L6.28151 20.5054C6.13779 20.9705 6.67591 21.3459 7.06276 21.0504L11.6965 17.5105C11.7861 17.4421 11.893 17.4079 12 17.4079V3.19354ZM21 9.9931C21.0296 10.0894 21.0313 10.1943 21 10.2928V9.9931Z" fill="black"/>
</svg>
